<svg xmlns="http://www.w3.org/2000/svg" xmlns:xlink="http://www.w3.org/1999/xlink" width="300" zoomAndPan="magnify" viewBox="0 0 224.87999 225" height="300" preserveAspectRatio="xMidYMid meet" version="1.0"><defs><clipPath id="98f572f125"><path d="M 28 7 L 198 7 L 198 224.636719 L 28 224.636719 Z M 28 7 " clip-rule="nonzero"/></clipPath></defs><g clip-path="url(#98f572f125)"><path fill="#e7a613" d="M 191.550781 58.085938 C 191.480469 57.945312 191.445312 57.800781 191.375 57.695312 C 190.949219 57.089844 180.417969 43.179688 164.800781 32.4375 C 149.683594 22.050781 122.359375 12.410156 98.382812 8.992188 C 80.808594 6.46875 65.761719 8.496094 58.042969 14.363281 C 54.769531 16.855469 52.882812 19.949219 52.421875 23.578125 C 51.175781 33.683594 54.945312 40.191406 56.65625 42.539062 C 49.46875 46.773438 45.875 55.808594 41.320312 67.300781 C 40.007812 70.644531 38.546875 74.273438 36.910156 78.113281 C 29.9375 94.300781 30.046875 97.289062 30.1875 103.800781 C 30.292969 107.425781 30.402344 111.945312 29.332031 120.660156 C 27.339844 136.847656 29.050781 140.726562 31.183594 145.597656 C 32.320312 148.195312 33.601562 151.148438 34.597656 156.734375 C 36.554688 167.976562 37.65625 170.039062 40.007812 174.519531 C 41.109375 176.621094 42.460938 179.179688 44.382812 183.59375 C 47.546875 190.886719 46.585938 194.976562 45.34375 200.167969 C 44.417969 204.226562 43.3125 208.777344 44.238281 215.394531 C 45.09375 221.691406 48.152344 223.71875 49.894531 224.394531 C 50.605469 224.679688 51.390625 224.789062 52.136719 224.789062 C 53.84375 224.789062 55.550781 224.109375 57.046875 222.796875 C 60.496094 219.808594 63.308594 212.835938 60.996094 202.234375 C 57.1875 184.980469 61.136719 180.746094 64.980469 176.65625 C 65.546875 176.050781 66.117188 175.445312 66.652344 174.804688 C 70.171875 170.679688 70.03125 167.867188 69.851562 163.5625 C 69.78125 161.679688 69.675781 159.578125 69.816406 156.769531 C 70.101562 151.46875 72.023438 147.199219 74.796875 145.632812 C 76.578125 144.636719 78.675781 144.78125 81.023438 146.027344 C 83.726562 147.484375 83.371094 153.390625 83.050781 158.617188 C 82.730469 164.097656 82.410156 169.253906 85.113281 171.78125 C 86.324219 172.917969 87.960938 173.382812 90.023438 173.097656 C 92.585938 172.777344 94.433594 171.675781 95.609375 169.859375 C 98.488281 165.308594 95.820312 157.375 93.511719 150.367188 C 92.726562 147.980469 91.980469 145.707031 91.554688 143.925781 C 91.339844 143.039062 91.269531 142.433594 91.234375 142.078125 C 92.050781 142.398438 93.402344 143.109375 94.433594 143.675781 C 96.390625 144.746094 98.632812 145.953125 100.980469 146.664062 C 101.90625 146.949219 104.714844 147.804688 106.601562 146.0625 C 109.125 143.75 108.023438 138.839844 106.496094 132.042969 L 106.457031 131.832031 C 108.878906 129.304688 121.542969 116.960938 148.402344 105.152344 C 155.585938 101.984375 162.488281 100.0625 168.570312 98.355469 C 183.796875 94.121094 195.785156 90.742188 196.996094 71.746094 C 197.457031 65.839844 195.464844 61.003906 191.550781 58.085938 Z M 55.980469 24.003906 C 56.300781 21.375 57.722656 19.0625 60.210938 17.175781 C 67.042969 11.945312 81.519531 10.167969 97.886719 12.515625 C 121.363281 15.894531 148.046875 25.285156 162.773438 35.355469 C 172.664062 42.148438 180.558594 50.402344 184.863281 55.382812 C 180.097656 54.742188 175.011719 56.34375 171.523438 59.828125 C 168.714844 62.640625 167.253906 66.339844 167.113281 70.574219 C 159.605469 60.078125 145.058594 50.296875 125.738281 43.003906 C 103.71875 34.679688 74.476562 29.945312 58.078125 37.808594 C 56.65625 34.925781 55.195312 30.300781 55.980469 24.003906 Z M 142.816406 62.320312 C 137.621094 60.363281 132.214844 58.335938 128.976562 55.238281 C 116.777344 43.605469 105.179688 42.964844 91.765625 42.21875 C 86.144531 41.898438 80.347656 41.578125 73.835938 40.476562 C 68.144531 39.515625 63.664062 39.800781 60 41.046875 C 59.964844 41.011719 59.925781 40.972656 59.855469 40.902344 C 73.410156 34.605469 99.09375 36.742188 124.496094 46.347656 C 145.910156 54.457031 161.632812 65.984375 167.078125 77.507812 C 164.550781 78.578125 161.992188 79.785156 159.714844 80.960938 C 160.105469 79.894531 160.320312 78.789062 160.320312 77.617188 C 160.390625 68.9375 151.460938 65.554688 142.816406 62.320312 Z M 104.289062 143.5 C 104.148438 143.605469 103.542969 143.75 102.117188 143.320312 C 100.089844 142.71875 98.027344 141.578125 96.214844 140.582031 C 93.046875 138.875 90.734375 137.628906 88.957031 138.980469 C 87.355469 140.191406 87.675781 142.609375 88.171875 144.78125 C 88.636719 146.773438 89.417969 149.085938 90.238281 151.574219 C 92.230469 157.515625 94.683594 164.914062 92.691406 168.046875 C 92.121094 168.933594 91.125 169.46875 89.667969 169.648438 C 88.28125 169.824219 87.78125 169.398438 87.640625 169.253906 C 86.144531 167.867188 86.429688 163.101562 86.714844 158.902344 C 87.105469 152.320312 87.535156 145.492188 82.835938 142.964844 C 78.496094 140.617188 75.1875 141.472656 73.195312 142.574219 C 69.285156 144.78125 66.757812 150.011719 66.402344 156.625 C 66.261719 159.578125 66.332031 161.890625 66.402344 163.742188 C 66.578125 167.796875 66.652344 169.46875 64.054688 172.527344 C 63.554688 173.132812 63.023438 173.703125 62.488281 174.273438 C 58.21875 178.824219 53.417969 183.949219 57.617188 203.050781 C 59.609375 212.160156 57.367188 217.957031 54.804688 220.164062 C 53.632812 221.195312 52.351562 221.515625 51.246094 221.085938 C 49.539062 220.445312 48.292969 218.207031 47.867188 214.933594 C 47.050781 208.957031 48.011719 204.902344 48.898438 200.988281 C 50.144531 195.617188 51.355469 190.527344 47.726562 182.167969 C 45.769531 177.652344 44.347656 174.984375 43.242188 172.847656 C 41.003906 168.578125 40.042969 166.800781 38.191406 156.09375 C 37.125 150.082031 35.738281 146.914062 34.527344 144.140625 C 32.535156 139.585938 31.078125 136.277344 32.925781 121.050781 C 34.03125 112.085938 33.886719 107.214844 33.816406 103.65625 C 33.671875 97.503906 33.601562 94.941406 40.253906 79.464844 C 41.925781 75.589844 43.351562 71.960938 44.703125 68.582031 C 51.070312 52.5 54.664062 43.429688 67.328125 43.429688 C 69.105469 43.429688 71.097656 43.605469 73.269531 44 C 79.957031 45.136719 86.144531 45.492188 91.589844 45.777344 C 104.824219 46.523438 115.28125 47.09375 126.523438 57.835938 C 130.292969 61.429688 136.019531 63.601562 141.570312 65.664062 C 149.398438 68.617188 156.796875 71.390625 156.761719 77.582031 C 156.726562 83.734375 147.832031 88.183594 139.257812 92.523438 C 132.675781 95.832031 126.488281 98.960938 123.320312 103.085938 C 118.484375 109.417969 117.699219 109.773438 113.324219 111.660156 C 112.613281 111.980469 111.832031 112.300781 110.90625 112.726562 C 107.527344 114.257812 104.394531 116.570312 102.972656 120.09375 C 101.335938 124.078125 102.117188 128.417969 103.007812 132.472656 C 103.507812 134.675781 104.003906 136.847656 104.359375 139.089844 C 104.539062 140.085938 105.179688 142.644531 104.289062 143.5 Z M 193.542969 71.605469 C 192.511719 88.074219 182.625 90.851562 167.71875 95.011719 C 161.527344 96.753906 154.484375 98.710938 147.050781 101.984375 C 123.355469 112.40625 110.621094 123.042969 105.746094 127.667969 C 104.964844 120.910156 107.738281 118.101562 112.398438 115.964844 C 113.289062 115.574219 114.070312 115.21875 114.746094 114.933594 C 119.691406 112.800781 120.9375 112.085938 126.132812 105.257812 C 128.800781 101.769531 134.917969 98.675781 140.859375 95.6875 C 145.484375 93.375 150.179688 90.992188 153.808594 88.253906 C 153.84375 88.21875 153.914062 88.253906 153.949219 88.21875 C 154.023438 88.183594 161.847656 83.519531 168.964844 80.605469 C 169.246094 81.386719 169.53125 82.167969 169.886719 82.953125 C 170.316406 83.839844 171.347656 84.234375 172.234375 83.839844 C 173.125 83.449219 173.515625 82.382812 173.125 81.492188 C 168.179688 70.679688 171.59375 64.878906 174.085938 62.390625 C 177.535156 58.941406 183.191406 57.835938 187.566406 59.792969 C 191.765625 61.679688 193.902344 65.875 193.542969 71.605469 Z M 193.542969 71.605469 " fill-opacity="1" fill-rule="nonzero"/></g><path fill="#e7a613" d="M 106.957031 100.882812 C 106.175781 98.070312 103.078125 96.507812 101.160156 95.757812 C 101.265625 95.617188 101.371094 95.472656 101.476562 95.367188 C 102.867188 93.730469 104.75 91.527344 104.464844 89.035156 C 104.324219 87.683594 103.578125 86.507812 102.261719 85.585938 C 94.46875 79.894531 89.597656 86.402344 87.25 89.496094 C 86.964844 89.855469 86.714844 90.210938 86.253906 90.777344 C 84.1875 93.339844 81.128906 97.183594 81.59375 101.128906 C 81.804688 102.945312 82.765625 104.511719 84.402344 105.789062 C 87.78125 108.386719 90.308594 108.316406 91.835938 107.78125 C 92.796875 107.464844 93.972656 106.75 94.96875 105.222656 C 96.285156 106.679688 98.171875 108.28125 100.339844 108.53125 C 100.519531 108.566406 100.730469 108.566406 100.945312 108.566406 C 102.117188 108.566406 103.648438 108.175781 105.105469 106.609375 C 107.3125 104.261719 107.347656 102.199219 106.957031 100.882812 Z M 102.511719 104.117188 C 101.726562 104.9375 101.121094 105.007812 100.730469 104.9375 C 99.023438 104.757812 96.960938 102.269531 96.070312 100.738281 C 95.75 100.207031 95.144531 99.851562 94.542969 99.851562 C 94.46875 99.851562 94.363281 99.851562 94.292969 99.851562 C 93.582031 99.957031 93.011719 100.453125 92.796875 101.167969 C 92.335938 102.910156 91.589844 104.046875 90.664062 104.332031 C 89.667969 104.652344 88.210938 104.15625 86.539062 102.875 C 85.683594 102.199219 85.183594 101.488281 85.113281 100.632812 C 84.828125 98.179688 87.460938 94.90625 89.242188 92.664062 C 89.527344 92.308594 89.808594 91.953125 90.09375 91.527344 C 93.082031 87.542969 95.539062 84.980469 100.164062 88.324219 C 100.625 88.679688 100.910156 89 100.945312 89.320312 C 101.050781 90.28125 99.699219 91.882812 98.808594 92.949219 C 97.636719 94.335938 96.605469 95.546875 97.03125 97.003906 C 97.175781 97.464844 97.601562 98.285156 98.808594 98.605469 C 100.839844 99.175781 103.1875 100.453125 103.542969 101.734375 C 103.71875 102.445312 103.363281 103.230469 102.511719 104.117188 Z M 102.511719 104.117188 " fill-opacity="1" fill-rule="nonzero"/><path fill="#e7a613" d="M 44.628906 132.933594 C 38.191406 139.585938 36.589844 146.308594 40.363281 150.96875 C 42.070312 153.105469 45.058594 154.136719 48.402344 154.136719 C 52.242188 154.136719 56.582031 152.75 60 150.046875 C 63.984375 146.878906 67.007812 140.617188 67.257812 135.105469 C 67.398438 131.6875 66.472656 128.949219 64.550781 127.136719 C 60.285156 123.152344 51.710938 125.640625 44.628906 132.933594 Z M 57.792969 147.234375 C 52.671875 151.289062 45.34375 151.433594 43.136719 148.695312 C 40.574219 145.527344 42.070312 140.6875 47.191406 135.390625 C 51.210938 131.261719 55.980469 128.738281 59.289062 128.738281 C 60.460938 128.738281 61.421875 129.054688 62.097656 129.695312 C 63.519531 131.046875 63.734375 133.253906 63.664062 134.925781 C 63.484375 139.445312 60.960938 144.710938 57.792969 147.234375 Z M 57.792969 147.234375 " fill-opacity="1" fill-rule="nonzero"/><path fill="#e7a613" d="M 87.320312 64.417969 C 87.605469 61.144531 86.75 58.265625 84.902344 56.378906 C 80.453125 51.859375 70.316406 50.652344 62.3125 56.058594 C 53.097656 62.285156 49.789062 70.039062 53.703125 76.230469 C 55.585938 79.21875 59.003906 81.386719 63.09375 82.207031 C 64.304688 82.453125 65.511719 82.5625 66.757812 82.5625 C 70.8125 82.5625 74.90625 81.28125 78.355469 78.824219 C 83.40625 75.269531 86.855469 69.753906 87.320312 64.417969 Z M 63.769531 78.71875 C 60.640625 78.078125 58.042969 76.476562 56.691406 74.34375 C 53.382812 69.078125 58.433594 62.960938 64.269531 59.011719 C 70.707031 54.636719 78.960938 55.417969 82.339844 58.867188 C 83.476562 60.007812 83.976562 61.890625 83.761719 64.097656 C 83.441406 67.476562 81.308594 72.386719 76.257812 75.945312 C 72.554688 78.578125 67.96875 79.574219 63.769531 78.71875 Z M 63.769531 78.71875 " fill-opacity="1" fill-rule="nonzero"/><path fill="#e7a613" d="M 64.945312 92.203125 C 63.664062 91.3125 62.097656 90.992188 60.605469 91.277344 C 55.730469 92.167969 51.460938 94.195312 47.976562 97.289062 C 46.410156 98.675781 45.058594 100.242188 43.953125 101.914062 C 43.5625 102.484375 43.242188 103.050781 42.996094 103.550781 C 42.816406 103.90625 42.675781 104.226562 42.566406 104.4375 C 41.960938 105.863281 41.925781 107.464844 42.53125 108.886719 C 43.101562 110.308594 44.203125 111.449219 45.664062 112.050781 C 46.410156 112.371094 47.15625 112.515625 47.9375 112.515625 C 50.179688 112.515625 52.351562 111.199219 53.273438 109.027344 C 53.273438 108.992188 53.3125 108.992188 53.3125 108.957031 C 53.417969 108.777344 53.523438 108.566406 53.703125 108.316406 C 54.234375 107.5 54.945312 106.714844 55.765625 105.96875 C 57.652344 104.296875 60 103.195312 62.738281 102.695312 C 65.902344 102.125 68.003906 99.066406 67.433594 95.9375 C 67.042969 94.40625 66.1875 93.089844 64.945312 92.203125 Z M 62.027344 99.210938 C 58.613281 99.851562 55.695312 101.203125 53.3125 103.335938 C 52.277344 104.261719 51.390625 105.292969 50.644531 106.359375 C 50.429688 106.679688 50.25 107 50.039062 107.425781 C 50.003906 107.5 49.964844 107.535156 49.929688 107.605469 C 49.433594 108.742188 48.117188 109.277344 46.941406 108.777344 C 46.375 108.53125 45.945312 108.101562 45.734375 107.535156 C 45.554688 106.964844 45.554688 106.359375 45.804688 105.828125 C 45.875 105.683594 45.945312 105.472656 46.089844 105.222656 C 46.300781 104.796875 46.585938 104.367188 46.871094 103.871094 C 47.796875 102.445312 48.972656 101.128906 50.285156 99.957031 C 53.273438 97.289062 56.976562 95.546875 61.207031 94.761719 C 61.351562 94.726562 61.492188 94.726562 61.597656 94.726562 C 62.0625 94.726562 62.488281 94.871094 62.878906 95.117188 C 63.378906 95.472656 63.699219 95.972656 63.804688 96.578125 C 64.054688 97.785156 63.234375 98.960938 62.027344 99.210938 Z M 62.027344 99.210938 " fill-opacity="1" fill-rule="nonzero"/><path fill="#e7a613" d="M 112.507812 79.894531 C 112.507812 79.894531 112.542969 79.894531 112.542969 79.894531 C 112.863281 79.855469 113.324219 79.855469 113.894531 79.929688 C 114.820312 80 115.78125 80.140625 116.8125 80.390625 C 119.800781 81.136719 122.609375 82.523438 125.136719 84.554688 C 125.703125 85.015625 126.238281 85.476562 126.773438 85.976562 C 127.910156 87.042969 129.367188 87.613281 130.792969 87.613281 C 132.320312 87.613281 133.851562 87.007812 134.988281 85.832031 C 137.195312 83.519531 137.125 79.820312 134.8125 77.617188 C 134.027344 76.867188 133.210938 76.15625 132.390625 75.480469 C 128.515625 72.386719 124.175781 70.214844 119.515625 69.078125 C 116.847656 68.4375 114.179688 68.152344 111.902344 68.261719 L 111.4375 68.296875 C 109.910156 68.4375 108.488281 69.183594 107.527344 70.394531 C 106.53125 71.605469 106.066406 73.097656 106.210938 74.664062 C 106.53125 77.792969 109.339844 80.175781 112.507812 79.894531 Z M 110.300781 72.636719 C 110.691406 72.171875 111.226562 71.886719 111.832031 71.816406 L 112.1875 71.78125 C 113.539062 71.710938 115.816406 71.78125 118.765625 72.492188 C 122.929688 73.488281 126.808594 75.410156 130.257812 78.222656 C 131.003906 78.824219 131.714844 79.464844 132.429688 80.140625 C 133.316406 80.996094 133.351562 82.453125 132.5 83.34375 C 131.644531 84.234375 130.1875 84.269531 129.296875 83.414062 C 128.691406 82.84375 128.050781 82.277344 127.414062 81.777344 C 124.460938 79.429688 121.1875 77.792969 117.699219 76.941406 C 116.492188 76.65625 115.316406 76.441406 114.214844 76.371094 C 113.75 76.335938 113.359375 76.335938 113.003906 76.335938 C 112.792969 76.335938 112.578125 76.335938 112.433594 76.335938 C 112.398438 76.335938 112.328125 76.335938 112.292969 76.335938 C 112.292969 76.335938 112.292969 76.335938 112.257812 76.335938 C 111.082031 76.441406 109.910156 75.554688 109.804688 74.273438 C 109.730469 73.703125 109.910156 73.097656 110.300781 72.636719 Z M 110.300781 72.636719 " fill-opacity="1" fill-rule="nonzero"/><path fill="#e7a613" d="M 96.640625 114.078125 C 95.359375 113.191406 93.828125 112.871094 92.300781 113.121094 C 90.769531 113.402344 89.417969 114.222656 88.53125 115.503906 C 87.460938 117.03125 86.109375 118.382812 84.4375 119.558594 C 82.910156 120.660156 81.164062 121.585938 79.28125 122.261719 C 78.675781 122.476562 78.140625 122.652344 77.644531 122.796875 L 77.214844 122.902344 C 75.6875 123.1875 74.371094 124.078125 73.515625 125.355469 C 72.664062 126.636719 72.34375 128.203125 72.628906 129.734375 C 72.914062 131.261719 73.800781 132.578125 75.082031 133.433594 C 76.042969 134.074219 77.179688 134.429688 78.320312 134.429688 C 78.710938 134.429688 79.066406 134.394531 79.457031 134.320312 C 79.707031 134.285156 80.132812 134.179688 80.667969 134.035156 C 81.484375 133.824219 82.339844 133.539062 83.300781 133.183594 C 86.144531 132.152344 88.777344 130.730469 91.199219 129.019531 C 93.902344 127.0625 96.214844 124.789062 98.027344 122.191406 C 99.914062 119.558594 99.273438 115.929688 96.640625 114.078125 Z M 95.144531 120.164062 C 93.546875 122.441406 91.554688 124.433594 89.132812 126.140625 C 87 127.667969 84.617188 128.914062 82.089844 129.839844 C 81.238281 130.160156 80.488281 130.410156 79.777344 130.585938 C 79.351562 130.691406 78.996094 130.765625 78.816406 130.835938 C 78.25 130.941406 77.644531 130.835938 77.109375 130.480469 C 76.613281 130.125 76.257812 129.625 76.148438 129.019531 C 76.042969 128.417969 76.148438 127.8125 76.503906 127.3125 C 76.824219 126.816406 77.359375 126.460938 77.964844 126.351562 C 78.175781 126.316406 78.425781 126.246094 78.640625 126.210938 C 79.207031 126.070312 79.847656 125.855469 80.5625 125.570312 C 82.730469 124.753906 84.757812 123.71875 86.539062 122.402344 C 88.492188 120.980469 90.164062 119.34375 91.445312 117.496094 C 91.800781 116.996094 92.300781 116.675781 92.90625 116.570312 C 93.511719 116.464844 94.113281 116.605469 94.613281 116.960938 C 95.644531 117.707031 95.894531 119.132812 95.144531 120.164062 Z M 95.144531 120.164062 " fill-opacity="1" fill-rule="nonzero"/></svg>